<svg xmlns="http://www.w3.org/2000/svg" viewBox="0 0 665.98 163" role="img" aria-labelledby="t"><title id="t">Softkey Technologies Private Limited</title><g transform="translate(0 0) scale(1) translate(-13.5 -13.5)"><path d="M158.64 44.84A81.03 81.03 0 0 1 63.46 169.64L70.31 160.79A70.27 70.27 0 0 0 149.14 50.21A19 19 0 0 1 158.64 44.84ZM34.9 149.35A81.03 81.03 0 0 1 128.94 21.42A19 19 0 0 1 125.93 31.9A70.27 70.27 0 0 0 41.61 140.69L34.9 149.35Z" fill="#FFFFFF"/><path d="M110.61 88.23L112.27 87.84L140.71 50.53L139.93 48.98L134.42 46.34L128.57 40.11L127.48 40.37L100.59 75.62L100.84 77.26ZM87.27 141.54L105.42 141.11L118.16 127.67L120.74 123.04L121.08 112.67L119.58 107.67L117.48 104.7L94.46 81.09L91.71 76.06L92.09 72.92L94.37 68.67L96.07 66.38L101.84 62.81L109.95 51.92L110.61 50.71L110.06 49.36L87.38 49.7L73.33 64.71L72.09 67.84L71.24 75.87L71.7 79.69L73.07 82.54L99.7 111.42L101.87 115.42L101.33 119.79L100.12 121.92L95.84 125.25L94.4 127.46L86.46 140.03ZM36.56 172.36L38.02 172.9L45.9 172.75L53.84 170.33L54.95 168L51.21 165.84L59.15 152.98L65.97 156.63L66.37 156.29L66.52 146.81L73.72 145.12L75.81 143.74L75.18 135.35L75.71 133.48L86.86 129.92L87.37 128.93L87.25 121.29L92.08 115.74L92.75 113.29L81.94 101.6L80.62 101.23L78.52 103.51L33.59 160.97L32.68 163.54L32.85 167.88L33.85 170.04Z" fill="#FFFFFF" stroke="#FFFFFF" stroke-width="0.8" stroke-linejoin="round"/><circle cx="144.93" cy="31.68" r="10.81" fill="#99EB26"/></g><g transform="translate(197 27.71) scale(0.81562)"><g transform="translate(0 0)"><path transform="translate(0 70)" d="M28.5 1.2L28.5 1.2Q20.1 1.2 12.4 -1.05Q4.7 -3.3 0 -6.9L0 -6.9L5.5 -19.1Q10 -15.9 16.15 -13.85Q22.3 -11.8 28.6 -11.8L28.6 -11.8Q33.4 -11.8 36.35 -12.75Q39.3 -13.7 40.7 -15.4Q42.1 -17.1 42.1 -19.3L42.1 -19.3Q42.1 -22.1 39.9 -23.75Q37.7 -25.4 34.1 -26.45Q30.5 -27.5 26.15 -28.45Q21.8 -29.4 17.45 -30.8Q13.1 -32.2 9.5 -34.4Q5.9 -36.6 3.65 -40.2Q1.4 -43.8 1.4 -49.4L1.4 -49.4Q1.4 -55.4 4.65 -60.35Q7.9 -65.3 14.45 -68.25Q21 -71.2 30.9 -71.2L30.9 -71.2Q37.5 -71.2 43.9 -69.65Q50.3 -68.1 55.2 -65L55.2 -65L50.2 -52.7Q45.3 -55.5 40.4 -56.85Q35.5 -58.2 30.8 -58.2L30.8 -58.2Q26.1 -58.2 23.1 -57.1Q20.1 -56 18.8 -54.25Q17.5 -52.5 17.5 -50.2L17.5 -50.2Q17.5 -47.5 19.7 -45.85Q21.9 -44.2 25.5 -43.2Q29.1 -42.2 33.45 -41.2Q37.8 -40.2 42.15 -38.9Q46.5 -37.6 50.1 -35.4Q53.7 -33.2 55.95 -29.6Q58.2 -26 58.2 -20.5L58.2 -20.5Q58.2 -14.6 54.9 -9.7Q51.6 -4.8 45.05 -1.8Q38.5 1.2 28.5 1.2M118.92 1.2L118.92 1.2Q110.62 1.2 103.57 -1.5Q96.52 -4.2 91.37 -9.1Q86.22 -14 83.37 -20.6Q80.52 -27.2 80.52 -35L80.52 -35Q80.52 -42.8 83.37 -49.4Q86.22 -56 91.42 -60.9Q96.62 -65.8 103.62 -68.5Q110.62 -71.2 118.82 -71.2L118.82 -71.2Q127.12 -71.2 134.07 -68.5Q141.02 -65.8 146.17 -60.9Q151.32 -56 154.22 -49.45Q157.12 -42.9 157.12 -35L157.12 -35Q157.12 -27.2 154.22 -20.55Q151.32 -13.9 146.17 -9.05Q141.02 -4.2 134.07 -1.5Q127.12 1.2 118.92 1.2M118.82 -12.6L118.82 -12.6Q123.52 -12.6 127.47 -14.2Q131.42 -15.8 134.42 -18.8Q137.42 -21.8 139.07 -25.9Q140.72 -30 140.72 -35L140.72 -35Q140.72 -40 139.07 -44.1Q137.42 -48.2 134.47 -51.2Q131.52 -54.2 127.52 -55.8Q123.52 -57.4 118.82 -57.4L118.82 -57.4Q114.12 -57.4 110.17 -55.8Q106.22 -54.2 103.22 -51.2Q100.22 -48.2 98.57 -44.1Q96.92 -40 96.92 -35L96.92 -35Q96.92 -30.1 98.57 -25.95Q100.22 -21.8 103.17 -18.8Q106.12 -15.8 110.12 -14.2Q114.12 -12.6 118.82 -12.6M201.13 0L184.93 0L184.93 -70L237.83 -70L237.83 -57L201.13 -57L201.13 -38.5L233.53 -38.5L233.53 -25.5L201.13 -25.5L201.13 0M295.15 0L278.95 0L278.95 -56.8L256.55 -56.8L256.55 -70L317.55 -70L317.55 -56.8L295.15 -56.8L295.15 0M357.97 0L341.87 0L341.87 -70L357.97 -70L357.97 -37.3L388.97 -70L406.97 -70L377.97 -38.8L408.67 0L389.77 0L367.37 -27.5L357.97 -17.7L357.97 0M485.68 0L431.48 0L431.48 -70L484.38 -70L484.38 -57L447.58 -57L447.58 -41.8L480.08 -41.8L480.08 -29.2L447.58 -29.2L447.58 -13L485.68 -13L485.68 0M547.8 0L531.6 0L531.6 -25L504.5 -70L521.7 -70L540.4 -38.9L559.1 -70L575 -70L547.8 -24.8L547.8 0" fill="#FFFFFF"/><path transform="translate(0 131.9)" d="M22 0L12.77 0L12.77 -32.38L0 -32.38L0 -39.9L34.77 -39.9L34.77 -32.38L22 -32.38L22 0M79.9 0L49.01 0L49.01 -39.9L79.16 -39.9L79.16 -32.49L58.19 -32.49L58.19 -23.83L76.71 -23.83L76.71 -16.64L58.19 -16.64L58.19 -7.41L79.9 -7.41L79.9 0M115.63 0.68L115.63 0.68Q111.01 0.68 107.05 -0.83Q103.09 -2.34 100.18 -5.13Q97.28 -7.92 95.65 -11.69Q94.03 -15.45 94.03 -19.95L94.03 -19.95Q94.03 -24.45 95.65 -28.21Q97.28 -31.98 100.21 -34.77Q103.15 -37.56 107.08 -39.07Q111.01 -40.58 115.69 -40.58L115.69 -40.58Q120.87 -40.58 125.06 -38.79Q129.25 -36.99 132.1 -33.52L132.1 -33.52L126.17 -28.04Q124.12 -30.38 121.61 -31.55Q119.11 -32.72 116.14 -32.72L116.14 -32.72Q113.35 -32.72 111.01 -31.81Q108.68 -30.89 106.97 -29.18Q105.26 -27.47 104.31 -25.14Q103.37 -22.8 103.37 -19.95L103.37 -19.95Q103.37 -17.1 104.31 -14.76Q105.26 -12.43 106.97 -10.72Q108.68 -9.01 111.01 -8.09Q113.35 -7.18 116.14 -7.18L116.14 -7.18Q119.11 -7.18 121.61 -8.35Q124.12 -9.52 126.17 -11.91L126.17 -11.91L132.1 -6.44Q129.25 -2.96 125.06 -1.14Q120.87 0.68 115.63 0.68M183.68 0L174.44 0L174.44 -16.36L156.32 -16.36L156.32 0L147.08 0L147.08 -39.9L156.32 -39.9L156.32 -24.17L174.44 -24.17L174.44 -39.9L183.68 -39.9L183.68 0M211.54 0L202.42 0L202.42 -39.9L210.05 -39.9L229.89 -15.68L229.89 -39.9L239.01 -39.9L239.01 0L231.43 0L211.54 -24.23L211.54 0M277.13 0.68L277.13 0.68Q272.4 0.68 268.38 -0.85Q264.36 -2.39 261.43 -5.19Q258.49 -7.98 256.87 -11.74Q255.24 -15.5 255.24 -19.95L255.24 -19.95Q255.24 -24.4 256.87 -28.16Q258.49 -31.92 261.46 -34.71Q264.42 -37.51 268.41 -39.05Q272.4 -40.58 277.07 -40.58L277.07 -40.58Q281.81 -40.58 285.77 -39.05Q289.73 -37.51 292.66 -34.71Q295.6 -31.92 297.25 -28.19Q298.91 -24.45 298.91 -19.95L298.91 -19.95Q298.91 -15.5 297.25 -11.71Q295.6 -7.92 292.66 -5.16Q289.73 -2.39 285.77 -0.85Q281.81 0.68 277.13 0.68M277.07 -7.18L277.07 -7.18Q279.75 -7.18 282.01 -8.09Q284.26 -9.01 285.97 -10.72Q287.68 -12.43 288.62 -14.76Q289.56 -17.1 289.56 -19.95L289.56 -19.95Q289.56 -22.8 288.62 -25.14Q287.68 -27.47 286 -29.18Q284.31 -30.89 282.03 -31.81Q279.75 -32.72 277.07 -32.72L277.07 -32.72Q274.4 -32.72 272.14 -31.81Q269.89 -30.89 268.18 -29.18Q266.47 -27.47 265.53 -25.14Q264.59 -22.8 264.59 -19.95L264.59 -19.95Q264.59 -17.16 265.53 -14.79Q266.47 -12.43 268.15 -10.72Q269.84 -9.01 272.12 -8.09Q274.4 -7.18 277.07 -7.18M344.38 0L315.14 0L315.14 -39.9L324.37 -39.9L324.37 -7.52L344.38 -7.52L344.38 0M378.23 0.68L378.23 0.68Q373.5 0.68 369.48 -0.85Q365.46 -2.39 362.52 -5.19Q359.59 -7.98 357.96 -11.74Q356.34 -15.5 356.34 -19.95L356.34 -19.95Q356.34 -24.4 357.96 -28.16Q359.59 -31.92 362.55 -34.71Q365.52 -37.51 369.51 -39.05Q373.5 -40.58 378.17 -40.58L378.17 -40.58Q382.9 -40.58 386.86 -39.05Q390.82 -37.51 393.76 -34.71Q396.69 -31.92 398.35 -28.19Q400 -24.45 400 -19.95L400 -19.95Q400 -15.5 398.35 -11.71Q396.69 -7.92 393.76 -5.16Q390.82 -2.39 386.86 -0.85Q382.9 0.68 378.23 0.68M378.17 -7.18L378.17 -7.18Q380.85 -7.18 383.1 -8.09Q385.35 -9.01 387.06 -10.72Q388.77 -12.43 389.71 -14.76Q390.65 -17.1 390.65 -19.95L390.65 -19.95Q390.65 -22.8 389.71 -25.14Q388.77 -27.47 387.09 -29.18Q385.41 -30.89 383.13 -31.81Q380.85 -32.72 378.17 -32.72L378.17 -32.72Q375.49 -32.72 373.24 -31.81Q370.99 -30.89 369.28 -29.18Q367.57 -27.47 366.63 -25.14Q365.69 -22.8 365.69 -19.95L365.69 -19.95Q365.69 -17.16 366.63 -14.79Q367.57 -12.43 369.25 -10.72Q370.93 -9.01 373.21 -8.09Q375.49 -7.18 378.17 -7.18M435.5 0.68L435.5 0.68Q430.77 0.68 426.81 -0.83Q422.85 -2.34 419.91 -5.13Q416.97 -7.92 415.35 -11.69Q413.73 -15.45 413.73 -19.95Q413.73 -24.45 415.35 -28.21Q416.97 -31.98 419.94 -34.77Q422.9 -37.56 426.89 -39.07Q430.88 -40.58 435.67 -40.58L435.67 -40.58Q440.97 -40.58 445.22 -38.82Q449.46 -37.05 452.37 -33.69L452.37 -33.69L446.44 -28.21Q444.28 -30.5 441.71 -31.61Q439.15 -32.72 436.13 -32.72L436.13 -32.72Q433.22 -32.72 430.83 -31.81Q428.43 -30.89 426.69 -29.18Q424.95 -27.47 424.01 -25.14Q423.07 -22.8 423.07 -19.95L423.07 -19.95Q423.07 -17.16 424.01 -14.82Q424.95 -12.48 426.69 -10.74Q428.43 -9.01 430.8 -8.09Q433.16 -7.18 436.01 -7.18L436.01 -7.18Q438.75 -7.18 441.37 -8.09L441.37 -8.09Q442.28 -8.38 443.19 -8.84L443.19 -8.84L443.19 -20.58L451.63 -20.58L451.63 -4.39Q448.38 -1.94 444.08 -0.63Q439.77 0.68 435.5 0.68M478.69 0L469.46 0L469.46 -39.9L478.69 -39.9L478.69 0M528.33 0L497.43 0L497.43 -39.9L527.59 -39.9L527.59 -32.49L506.61 -32.49L506.61 -23.83L525.14 -23.83L525.14 -16.64L506.61 -16.64L506.61 -7.41L528.33 -7.41L528.33 0M558.07 0.68L558.07 0.68Q553.28 0.68 548.89 -0.6Q544.5 -1.88 541.83 -3.93L541.83 -3.93L544.96 -10.89Q547.53 -9.06 551.03 -7.89Q554.54 -6.73 558.13 -6.73L558.13 -6.73Q560.86 -6.73 562.55 -7.27Q564.23 -7.81 565.02 -8.78Q565.82 -9.75 565.82 -11L565.82 -11Q565.82 -12.6 564.57 -13.54Q563.32 -14.48 561.26 -15.08Q559.21 -15.68 556.73 -16.22Q554.25 -16.76 551.77 -17.56Q549.29 -18.35 547.24 -19.61Q545.19 -20.86 543.91 -22.91Q542.62 -24.97 542.62 -28.16L542.62 -28.16Q542.62 -31.58 544.48 -34.4Q546.33 -37.22 550.06 -38.9Q553.8 -40.58 559.44 -40.58L559.44 -40.58Q563.2 -40.58 566.85 -39.7Q570.5 -38.82 573.29 -37.05L573.29 -37.05L570.44 -30.04Q567.65 -31.64 564.85 -32.4Q562.06 -33.17 559.38 -33.17L559.38 -33.17Q556.7 -33.17 554.99 -32.55Q553.28 -31.92 552.54 -30.92Q551.8 -29.93 551.8 -28.61L551.8 -28.61Q551.8 -27.07 553.06 -26.13Q554.31 -25.19 556.36 -24.62Q558.41 -24.05 560.89 -23.48Q563.37 -22.91 565.85 -22.17Q568.33 -21.43 570.38 -20.18Q572.44 -18.92 573.72 -16.87Q575 -14.82 575 -11.69L575 -11.69Q575 -8.32 573.12 -5.53Q571.24 -2.74 567.5 -1.03Q563.77 0.68 558.07 0.68" fill="#B98D36"/></g></g></svg>
